<?xml version="1.0" encoding="UTF-8" standalone="no"?>
<svg width="23px" height="22px" viewBox="0 0 23 22" version="1.1" xmlns="http://www.w3.org/2000/svg" xmlns:xlink="http://www.w3.org/1999/xlink">
    <!-- Generator: Sketch 3.7.2 (28276) - http://www.bohemiancoding.com/sketch -->
    <title>education</title>
    <desc>Created with Sketch.</desc>
    <defs></defs>
    <g id="Design" stroke="none" stroke-width="1" fill="none" fill-rule="evenodd">
        <g id="Resources" transform="translate(-830.000000, -439.000000)" stroke="#222222">
            <g id="education" transform="translate(830.000000, 440.000000)">
                <polygon id="Shape" points="11.6 0.171428571 0.285714286 5.88571429 11.6 11.5428571 22.9714286 5.88571429"></polygon>
                <path d="M15.3142857,17.3714286 L17.2571429,13.9428571 L18.2857143,15.7714286 C18.4571429,15.6 18.6857143,15.4857143 18.8571429,15.3142857 L18.8571429,7.88571429 L11.5428571,11.5428571 L4.22857143,7.88571429 L4.22857143,15.3142857 C6.11428571,16.9714286 8.68571429,18 11.5428571,18 C12.9142857,18 14.1714286,17.7714286 15.3142857,17.3714286 L15.3142857,17.3714286 Z" id="Shape"></path>
                <path d="M14.4571429,18.9142857 C15.2,19.3142857 16.1714286,19.6 17.3142857,19.6 C18.4,19.6 19.4285714,19.3142857 20.1714286,18.9142857 L17.3142857,13.9428571 L14.4571429,18.9142857 L14.4571429,18.9142857 Z" id="Shape"></path>
                <polygon id="Shape" points="17.3142857 13.9428571 17.3142857 8.68571429 11.6 5.88571429 17.3142857 8.68571429"></polygon>
            </g>
        </g>
    </g>
</svg>