<?xml version="1.0" encoding="UTF-8" standalone="no"?>
<svg width="27px" height="25px" viewBox="0 0 27 25" version="1.1" xmlns="http://www.w3.org/2000/svg" xmlns:xlink="http://www.w3.org/1999/xlink">
    <!-- Generator: Sketch 3.7.2 (28276) - http://www.bohemiancoding.com/sketch -->
    <title>Commodities</title>
    <desc>Created with Sketch.</desc>
    <defs></defs>
    <g id="Design" stroke="none" stroke-width="1" fill="none" fill-rule="evenodd">
        <g id="Resources" transform="translate(-631.000000, -916.000000)" fill="#000000">
            <g id="Commodities" transform="translate(631.000000, 916.000000)">
                <g id="Layer_1">
                    <g id="Group">
                        <path d="M7.41773256,16.1311047 C7.55377907,16.325 7.77587209,16.440407 8.0127907,16.440407 L18.1505814,16.440407 L18.1563953,16.440407 C18.5578488,16.440407 18.8831395,16.1151163 18.8831395,15.7136628 C18.8831395,15.5947674 18.8546512,15.4822674 18.8040698,15.3831395 L16.8299419,9.93517442 C16.7258721,9.64738372 16.4526163,9.45610465 16.1465116,9.45610465 L10.0168605,9.45610465 C9.71104651,9.45610465 9.4377907,9.64767442 9.33343023,9.93517442 L7.32906977,15.4659884 C7.24883721,15.6889535 7.28168605,15.9369186 7.41773256,16.1311047 L7.41773256,16.1311047 Z M10.5264535,10.9098837 L15.6366279,10.9098837 L17.1139535,14.9872093 L9.04883721,14.9872093 L10.5264535,10.9098837 L10.5264535,10.9098837 Z" id="Shape"></path>
                        <path d="M9.5622093,18.4366279 C9.45784884,18.1491279 9.18488372,17.9575581 8.87877907,17.9575581 L2.7494186,17.9575581 C2.44360465,17.9575581 2.17034884,18.1491279 2.06598837,18.4366279 L0.0619186047,23.9671512 C-0.0186046512,24.1898256 0.014244186,24.4377907 0.150290698,24.6319767 C0.286337209,24.8258721 0.508430233,24.9412791 0.745348837,24.9412791 L10.8831395,24.9412791 C10.8851744,24.9412791 10.8872093,24.9409884 10.8889535,24.9412791 C11.290407,24.9412791 11.6156977,24.6159884 11.6156977,24.2145349 C11.6156977,24.0956395 11.5869186,23.9831395 11.5363372,23.8840116 L9.5622093,18.4366279 L9.5622093,18.4366279 Z M1.78139535,23.4880814 L3.25901163,19.4110465 L8.36918605,19.4110465 L9.84680233,23.4880814 L1.78139535,23.4880814 L1.78139535,23.4880814 Z" id="Shape"></path>
                        <path d="M26.0712209,23.8843023 L24.097093,18.4366279 C23.9930233,18.1491279 23.7197674,17.9575581 23.4136628,17.9575581 L17.284593,17.9575581 C16.9787791,17.9575581 16.7055233,18.1491279 16.6011628,18.4366279 L14.5965116,23.9671512 C14.5159884,24.1898256 14.5488372,24.4377907 14.6848837,24.6319767 C14.8209302,24.8258721 15.0427326,24.9412791 15.2799419,24.9412791 L25.4177326,24.9412791 C25.4197674,24.9415698 25.422093,24.9415698 25.4235465,24.9412791 C25.825,24.9412791 26.1502907,24.6159884 26.1502907,24.2145349 C26.1502907,24.0959302 26.1218023,23.9834302 26.0712209,23.8843023 L26.0712209,23.8843023 Z M16.3165698,23.4880814 L17.794186,19.4110465 L22.9040698,19.4110465 L24.3813953,23.4880814 L16.3165698,23.4880814 L16.3165698,23.4880814 Z" id="Shape"></path>
                        <path d="M13.0813953,7.84883721 C13.4828488,7.84883721 13.8081395,7.52354651 13.8081395,7.12209302 L13.8081395,0.810755814 C13.8081395,0.409302326 13.4828488,0.0840116279 13.0813953,0.0840116279 C12.6799419,0.0840116279 12.3546512,0.409302326 12.3546512,0.810755814 L12.3546512,7.12209302 C12.3546512,7.52354651 12.6799419,7.84883721 13.0813953,7.84883721 L13.0813953,7.84883721 Z" id="Shape"></path>
                        <path d="M6.85581395,8.79883721 C6.99767442,8.94069767 7.18372093,9.01162791 7.36976744,9.01162791 C7.55581395,9.01162791 7.74186047,8.94069767 7.88372093,8.79883721 C8.16773256,8.51511628 8.16773256,8.05494186 7.88372093,7.77122093 L3.42093023,3.30813953 C3.1372093,3.02412791 2.67674419,3.02412791 2.39331395,3.30813953 C2.10930233,3.59186047 2.10930233,4.05203488 2.39331395,4.33575581 L6.85581395,8.79883721 L6.85581395,8.79883721 Z" id="Shape"></path>
                        <path d="M18.7930233,9.01162791 C18.9790698,9.01162791 19.1648256,8.94069767 19.3069767,8.79883721 L23.7697674,4.33575581 C24.0537791,4.05203488 24.0537791,3.59186047 23.7697674,3.30813953 C23.4857558,3.02412791 23.0258721,3.02412791 22.7421512,3.30813953 L18.2793605,7.77093023 C17.9953488,8.05465116 17.9953488,8.51482558 18.2793605,8.79854651 C18.4212209,8.94069767 18.6072674,9.01162791 18.7930233,9.01162791 L18.7930233,9.01162791 Z" id="Shape"></path>
                    </g>
                </g>
            </g>
        </g>
    </g>
</svg>