<?xml version="1.0" encoding="UTF-8" standalone="no"?>
<svg width="16px" height="22px" viewBox="0 0 16 22" version="1.1" xmlns="http://www.w3.org/2000/svg" xmlns:xlink="http://www.w3.org/1999/xlink">
    <!-- Generator: Sketch 3.7.2 (28276) - http://www.bohemiancoding.com/sketch -->
    <title>Calculators</title>
    <desc>Created with Sketch.</desc>
    <defs></defs>
    <g id="Design" stroke="none" stroke-width="1" fill="none" fill-rule="evenodd">
        <g id="Resources" transform="translate(-229.000000, -439.000000)" stroke="#222222">
            <g id="Calculators" transform="translate(230.000000, 440.000000)">
                <path d="M12.4401042,20 L1.7265625,20 C0.752604167,20 0,19.2608696 0,18.3043478 L0,1.69565217 C0,0.739130435 0.752604167,0 1.7265625,0 L12.4401042,0 C13.4140625,0 14.1666667,0.739130435 14.1666667,1.69565217 L14.1666667,18.3043478 C14.1666667,19.2608696 13.4140625,20 12.4401042,20 L12.4401042,20 Z" id="Shape"></path>
                <rect id="Rectangle-path" x="2.16927083" y="2.39130435" width="10.1822917" height="5.86956522"></rect>
                <g id="Group" transform="translate(2.213542, 11.434783)">
                    <path d="M0,0 L2.125,0" id="Shape"></path>
                    <path d="M3.80729167,0 L5.93229167,0" id="Shape"></path>
                    <path d="M7.61458333,0 L9.73958333,0" id="Shape"></path>
                    <path d="M0,2 L2.125,2" id="Shape"></path>
                    <path d="M3.80729167,2 L5.93229167,2" id="Shape"></path>
                    <path d="M7.61458333,2 L9.73958333,2" id="Shape"></path>
                    <path d="M0,4 L2.125,4" id="Shape"></path>
                    <path d="M3.80729167,4 L5.93229167,4" id="Shape"></path>
                    <path d="M7.61458333,4 L9.73958333,4" id="Shape"></path>
                    <path d="M0,6 L2.125,6" id="Shape"></path>
                    <path d="M3.80729167,6 L5.93229167,6" id="Shape"></path>
                    <path d="M7.61458333,6 L9.73958333,6" id="Shape"></path>
                </g>
            </g>
        </g>
    </g>
</svg>