<?xml version="1.0" encoding="UTF-8" standalone="no"?>
<svg width="24px" height="25px" viewBox="0 0 24 25" version="1.1" xmlns="http://www.w3.org/2000/svg" xmlns:xlink="http://www.w3.org/1999/xlink">
    <!-- Generator: Sketch 3.7.2 (28276) - http://www.bohemiancoding.com/sketch -->
    <title>equities</title>
    <desc>Created with Sketch.</desc>
    <defs></defs>
    <g id="Design" stroke="none" stroke-width="1" fill="none" fill-rule="evenodd">
        <g id="Resources" transform="translate(-232.000000, -920.000000)" fill="#000000">
            <g id="equities" transform="translate(232.000000, 920.000000)">
                <g id="Layer_1">
                    <path d="M5.3,6.29127907 L18.9700581,6.29127907 C19.3697674,6.29127907 19.6947674,5.92674419 19.6947674,5.47877907 C19.6947674,5.03110465 19.3700581,4.66686047 18.9709302,4.66686047 L5.3,4.66686047 C4.90087209,4.66686047 4.57616279,5.03110465 4.57616279,5.47877907 C4.57616279,5.92674419 4.90087209,6.29127907 5.3,6.29127907 L5.3,6.29127907 Z" id="Shape"></path>
                    <path d="M19.6950581,9.79883721 C19.6950581,9.35116279 19.3703488,8.9869186 18.9712209,8.9869186 L5.3,8.9869186 C4.90087209,8.9869186 4.57616279,9.35116279 4.57616279,9.79883721 C4.57616279,10.247093 4.90087209,10.6113372 5.3,10.6113372 L18.9700581,10.6113372 C19.3703488,10.6113372 19.6950581,10.2468023 19.6950581,9.79883721 L19.6950581,9.79883721 Z" id="Shape"></path>
                    <path d="M5.3,13.225 C4.90087209,13.225 4.57616279,13.5895349 4.57616279,14.0375 C4.57616279,14.4854651 4.90087209,14.85 5.3,14.85 L12.5822674,14.85 C12.9819767,14.85 13.3069767,14.4854651 13.3069767,14.0375 C13.3069767,13.5895349 12.9819767,13.225 12.5822674,13.225 L5.3,13.225 L5.3,13.225 Z" id="Shape"></path>
                    <path d="M20.0200581,13.3444767 C18.1151163,13.3444767 16.565407,14.8938953 16.565407,16.7985465 C16.565407,18.7037791 18.1151163,20.2534884 20.0200581,20.2534884 C21.925,20.2534884 23.4747093,18.7037791 23.4747093,16.7985465 C23.4747093,14.8938953 21.925,13.3444767 20.0200581,13.3444767 L20.0200581,13.3444767 Z M20.0200581,18.8877907 C18.868314,18.8877907 17.9313953,17.9505814 17.9313953,16.7985465 C17.9313953,15.6468023 18.868314,14.7098837 20.0200581,14.7098837 C21.1715116,14.7098837 22.1084302,15.6468023 22.1084302,16.7985465 C22.1084302,17.9505814 21.1715116,18.8877907 20.0200581,18.8877907 L20.0200581,18.8877907 Z" id="Shape"></path>
                    <path d="M22.6380814,20.668314 C22.2613372,20.668314 21.9546512,20.975 21.9546512,21.3517442 L21.9546512,22.243314 L21.9546512,23.1726744 L21.1188953,22.7662791 L20.318314,22.3767442 C20.2290698,22.3334302 20.1258721,22.3104651 20.0200581,22.3104651 C19.9136628,22.3104651 19.8098837,22.3334302 19.7197674,22.3770349 L18.9200581,22.7659884 L18.0843023,23.1726744 L18.0843023,22.243314 L18.0843023,21.3514535 C18.0843023,20.9747093 17.7781977,20.6680233 17.4017442,20.6680233 C17.025,20.6680233 16.7186047,20.9747093 16.7186047,21.3514535 L16.7186047,24.2648256 C16.7186047,24.5020349 16.8383721,24.7188953 17.0389535,24.844186 C17.147093,24.9116279 17.2723837,24.9473837 17.4017442,24.9473837 C17.5046512,24.9473837 17.6084302,24.9235465 17.7008721,24.8787791 L19.7645349,23.8738372 L20.019186,23.7497093 L20.2735465,23.8738372 L22.3389535,24.8793605 C22.4273256,24.9218023 22.5296512,24.9450581 22.6348837,24.9450581 C22.7656977,24.9450581 22.8959302,24.9090116 23.0011628,24.843314 C23.2005814,24.718314 23.3203488,24.5017442 23.3203488,24.2648256 L23.3203488,21.3514535 C23.3206395,21.169186 23.2494186,20.9976744 23.1203488,20.8686047 C22.9912791,20.7395349 22.8197674,20.668314 22.6380814,20.668314 L22.6380814,20.668314 Z" id="Shape"></path>
                    <path d="M20.2843023,0.0523255814 L3.55290698,0.0523255814 C1.67180233,0.0523255814 0.14127907,1.58255814 0.14127907,3.46366279 L0.14127907,18.4630814 C0.14127907,20.344186 1.67180233,21.8744186 3.55261628,21.8744186 L13.872093,21.8744186 C13.5354651,21.3700581 13.2636628,20.8235465 13.0645349,20.2497093 L13.0645349,20.2494186 L3.55290698,20.2494186 C2.56744186,20.2494186 1.76627907,19.4479651 1.76627907,18.4627907 L1.76627907,3.46366279 C1.76627907,2.47819767 2.56773256,1.67674419 3.55290698,1.67674419 L20.2848837,1.67674419 C21.2703488,1.67674419 22.0715116,2.47819767 22.0715116,3.46366279 L22.0715116,11.1639535 C22.6444767,11.3569767 23.1909884,11.6226744 23.6959302,11.9534884 L23.6959302,3.46366279 C23.6962209,1.58255814 22.1656977,0.0523255814 20.2843023,0.0523255814 L20.2843023,0.0523255814 Z" id="Shape"></path>
                </g>
            </g>
        </g>
    </g>
</svg>