<?xml version="1.0" encoding="UTF-8"?>
<svg width="289px" height="50px" viewBox="0 0 289 50" version="1.1" xmlns="http://www.w3.org/2000/svg" xmlns:xlink="http://www.w3.org/1999/xlink">
    <!-- Generator: Sketch 55.2 (78181) - https://sketchapp.com -->
    <title>ಬಂಗಳೂರು</title>
    <desc>Created with Sketch.</desc>
    <g id="Page-1" stroke="none" stroke-width="1" fill="none" fill-rule="evenodd">
        <g id="Zerodhda-Landing-Page-Copy-14" transform="translate(-990.000000, -2017.000000)" fill="#424242" fill-rule="nonzero">
            <path d="M1028.12967,2037.47468 C1029.30321,2038.52954 1030.29338,2039.65822 1031.1002,2040.86076 C1031.90701,2042.0633 1032.55664,2043.28164 1033.04912,2044.51582 C1033.54159,2045.75001 1033.8926,2046.94725 1034.10216,2048.10759 C1034.31172,2049.26794 1034.4165,2050.32278 1034.4165,2051.27215 C1034.4165,2053.74052 1034.08645,2055.95041 1033.42633,2057.9019 C1032.7662,2059.85339 1031.82319,2061.49894 1030.59725,2062.83861 C1029.37131,2064.17828 1027.89916,2065.20675 1026.18075,2065.92405 C1024.46234,2066.64135 1022.55535,2067 1020.45972,2067 C1019.45383,2067 1018.49509,2066.87869 1017.5835,2066.63608 C1016.6719,2066.39346 1015.82319,2066.05591 1015.03733,2065.62342 C1014.25147,2065.19093 1013.54421,2064.66351 1012.91552,2064.04114 C1012.28683,2063.41877 1011.75246,2062.72785 1011.31238,2061.96835 C1010.83038,2062.72785 1010.24362,2063.41877 1009.55206,2064.04114 C1008.86051,2064.66351 1008.09038,2065.1962 1007.24165,2065.63924 C1006.39292,2066.08228 1005.48658,2066.41983 1004.52259,2066.6519 C1003.55861,2066.88397 1002.5632,2067 1001.53635,2067 C1000.71905,2067 999.865099,2066.92616 998.97446,2066.77848 C998.08382,2066.6308 997.208911,2066.38819 996.349705,2066.05063 C995.4905,2065.71308 994.678458,2065.27532 993.913556,2064.73734 C993.148654,2064.19936 992.478064,2063.54536 991.901768,2062.77532 C991.325472,2062.00527 990.864442,2061.10338 990.518664,2060.06962 C990.172886,2059.03586 990,2057.85444 990,2056.52532 C990,2055.1751 990.277666,2053.9673 990.833006,2052.9019 C991.388346,2051.83649 992.100847,2050.88186 992.97053,2050.03797 C993.840214,2049.19409 994.819903,2048.42405 995.909627,2047.72785 C996.999351,2047.03164 998.07858,2046.36709 999.147348,2045.73418 C999.859859,2045.31223 1000.53569,2044.90085 1001.17485,2044.5 C1001.81402,2044.09915 1002.37459,2043.69304 1002.85658,2043.28165 C1003.33857,2042.87025 1003.72626,2042.43249 1004.01965,2041.96835 C1004.31303,2041.50422 1004.45972,2040.99789 1004.45972,2040.44937 C1004.45972,2039.96413 1004.36018,2039.54747 1004.1611,2039.19937 C1003.96202,2038.85126 1003.70531,2038.56646 1003.39096,2038.34494 C1003.07662,2038.12342 1002.72561,2037.96519 1002.33792,2037.87025 C1001.95023,2037.77532 1001.57826,2037.72785 1001.222,2037.72785 C1000.53045,2037.72785 999.912249,2037.89135 999.367387,2038.21835 C998.822525,2038.54536 998.356256,2038.95147 997.968566,2039.43671 C997.580876,2039.92194 997.261298,2040.45991 997.009823,2041.05063 C996.758348,2041.64135 996.569745,2042.18987 996.444008,2042.6962 L990.282908,2039.94304 C990.618207,2038.82489 991.089715,2037.7595 991.697446,2036.74684 C992.305177,2035.73417 993.05435,2034.84811 993.94499,2034.08861 C994.83563,2033.32911 995.872948,2032.72258 997.056974,2032.26899 C998.241001,2031.8154 999.576941,2031.58861 1001.06483,2031.58861 C1002.59464,2031.58861 1003.98297,2031.79958 1005.22986,2032.22152 C1006.47676,2032.64346 1007.54027,2033.25 1008.42043,2034.04114 C1009.30059,2034.83228 1009.98166,2035.80274 1010.46365,2036.95253 C1010.94565,2038.10233 1011.18664,2039.40506 1011.18664,2040.86076 C1011.18664,2042.16878 1010.92469,2043.31329 1010.40079,2044.2943 C1009.87688,2045.27532 1009.20105,2046.15611 1008.37328,2046.93671 C1007.54551,2047.7173 1006.60773,2048.41877 1005.55992,2049.04114 C1004.51211,2049.66351 1003.46431,2050.25949 1002.4165,2050.82911 C1001.68303,2051.22996 1000.97053,2051.6308 1000.27898,2052.03165 C999.587423,2052.43249 998.979701,2052.8597 998.455796,2053.31329 C997.93189,2053.76688 997.512772,2054.26266 997.198428,2054.80063 C996.884085,2055.33861 996.726916,2055.9346 996.726916,2056.58861 C996.726916,2057.45359 996.894563,2058.18143 997.229862,2058.77215 C997.565162,2059.36287 997.994758,2059.83755 998.518664,2060.1962 C999.04257,2060.55485 999.618857,2060.81329 1000.24754,2060.97152 C1000.87623,2061.12975 1001.47347,2061.20886 1002.03929,2061.20886 C1002.70989,2061.20886 1003.38572,2061.02954 1004.0668,2060.67089 C1004.74788,2060.31223 1005.36084,2059.80064 1005.9057,2059.13608 C1006.45056,2058.47152 1006.91159,2057.66456 1007.2888,2056.71519 C1007.66601,2055.76582 1007.88605,2054.70043 1007.94892,2053.51899 L1014.58153,2053.51899 C1014.66536,2054.46836 1014.84348,2055.40189 1015.11591,2056.31962 C1015.38834,2057.23735 1015.76031,2058.06012 1016.23183,2058.78797 C1016.70334,2059.51583 1017.27963,2060.10126 1017.96071,2060.5443 C1018.64178,2060.98734 1019.45383,2061.20886 1020.39686,2061.20886 C1021.65423,2061.20886 1022.7387,2060.92933 1023.65029,2060.37025 C1024.56189,2059.81118 1025.3163,2059.07279 1025.91356,2058.15506 C1026.51081,2057.23734 1026.95612,2056.1825 1027.24951,2054.99051 C1027.5429,2053.79852 1027.68959,2052.55908 1027.68959,2051.27215 C1027.68959,2050.1962 1027.53766,2049.01477 1027.23379,2047.72785 C1026.92993,2046.44092 1026.42698,2045.16984 1025.72495,2043.91456 C1025.02292,2042.65928 1024.09562,2041.48313 1022.94303,2040.38608 C1021.79043,2039.28902 1020.37591,2038.40296 1018.69941,2037.72785 L1014.5501,2037.72785 L1014.5501,2031.93671 L1024.73477,2031.93671 C1026.13884,2031.93671 1027.32285,2031.77848 1028.28684,2031.46203 C1029.25082,2031.14557 1030.03143,2030.72891 1030.62868,2030.21203 C1031.22594,2029.69515 1031.65029,2029.09916 1031.90177,2028.42405 C1032.15324,2027.74894 1032.27898,2027.05275 1032.27898,2026.33544 C1032.27898,2025.76582 1032.17944,2025.21203 1031.98035,2024.67405 C1031.78127,2024.13607 1031.49313,2023.65085 1031.11591,2023.21835 C1030.7387,2022.78586 1030.28291,2022.44304 1029.74853,2022.18987 C1029.21414,2021.93671 1028.61166,2021.81013 1027.94106,2021.81013 C1026.70464,2021.81013 1025.5835,2022.13713 1024.5776,2022.79114 C1025.49968,2022.83333 1026.24885,2023.13396 1026.82515,2023.69304 C1027.40144,2024.25211 1027.68959,2024.99578 1027.68959,2025.92405 C1027.68959,2026.55697 1027.57433,2027.09493 1027.34381,2027.53797 C1027.11329,2027.98101 1026.81467,2028.34494 1026.44794,2028.62975 C1026.0812,2028.91456 1025.68304,2029.12025 1025.25344,2029.24684 C1024.82384,2029.37342 1024.40996,2029.43671 1024.01179,2029.43671 C1022.58676,2029.43671 1021.48134,2028.94093 1020.69548,2027.94937 C1019.90962,2026.9578 1019.5167,2025.69199 1019.5167,2024.1519 C1019.5167,2022.92826 1019.77865,2021.86815 1020.30255,2020.97152 C1020.82646,2020.07489 1021.49705,2019.33123 1022.31434,2018.74051 C1023.13163,2018.14979 1024.05369,2017.71203 1025.08055,2017.42722 C1026.10741,2017.1424 1027.12377,2017 1028.12967,2017 C1029.5966,2017 1030.93778,2017.25844 1032.15324,2017.77532 C1033.3687,2018.2922 1034.40602,2018.98839 1035.26523,2019.86392 C1036.12443,2020.73946 1036.79502,2021.73628 1037.27701,2022.85443 C1037.75901,2023.97258 1038,2025.13291 1038,2026.33544 C1038,2027.34811 1037.86903,2028.43459 1037.60707,2029.59494 C1037.34512,2030.75528 1036.85266,2031.86814 1036.12967,2032.93354 C1035.40668,2033.99895 1034.40603,2034.94303 1033.1277,2035.76582 C1031.84937,2036.58861 1030.18338,2037.15823 1028.12967,2037.47468 Z M1047,2049.5 C1047,2051.3076 1047.32424,2052.92818 1047.97271,2054.36179 C1048.62119,2055.7954 1049.48408,2057.00045 1050.56139,2057.97696 C1051.6387,2058.95348 1052.86766,2059.70144 1054.24829,2060.22087 C1055.62893,2060.74029 1057.05138,2061 1058.51569,2061 C1059.95908,2061 1061.37107,2060.72471 1062.75171,2060.17412 C1064.13234,2059.62353 1065.3613,2058.8444 1066.43861,2057.83672 C1067.51592,2056.82904 1068.37881,2055.6188 1069.02729,2054.20596 C1069.67576,2052.79313 1070,2051.22449 1070,2049.5 C1070,2047.83784 1069.67054,2046.30037 1069.0116,2044.88753 C1068.35266,2043.4747 1067.48454,2042.25926 1066.40723,2041.24119 C1065.32992,2040.22312 1064.10096,2039.42841 1062.72033,2038.85705 C1061.33969,2038.28568 1059.93816,2038 1058.51569,2038 C1057.09322,2038 1055.69168,2038.28568 1054.31105,2038.85705 C1052.93042,2039.42841 1051.69623,2040.22312 1050.60846,2041.24119 C1049.52069,2042.25926 1048.64734,2043.46951 1047.9884,2044.87195 C1047.32946,2046.2744 1047,2047.81706 1047,2049.5 Z M1040,2049.5 C1040,2047.0774 1040.48656,2044.80359 1041.45969,2042.67851 C1042.43282,2040.55342 1043.75499,2038.69931 1045.42624,2037.11612 C1047.09749,2035.53293 1049.05431,2034.28446 1051.29674,2033.37067 C1053.53918,2032.45689 1055.92966,2032 1058.46827,2032 C1061.02803,2032 1063.42909,2032.45689 1065.67153,2033.37067 C1067.91396,2034.28446 1069.87606,2035.53293 1071.55789,2037.11612 C1073.23972,2038.69931 1074.56718,2040.55342 1075.54031,2042.67851 C1076.51344,2044.80359 1077,2047.0774 1077,2049.5 C1077,2051.9226 1076.51344,2054.19641 1075.54031,2056.32149 C1074.56718,2058.44658 1073.23972,2060.30069 1071.55789,2061.88388 C1069.87606,2063.46707 1067.91396,2064.71554 1065.67153,2065.62933 C1063.42909,2066.54311 1061.02803,2067 1058.46827,2067 C1055.92966,2067 1053.53918,2066.54311 1051.29674,2065.62933 C1049.05431,2064.71554 1047.09749,2063.46707 1045.42624,2061.88388 C1043.75499,2060.30069 1042.43282,2058.44658 1041.45969,2056.32149 C1040.48656,2054.19641 1040,2051.9226 1040,2049.5 Z M1111.02148,2037.91537 C1111.99735,2038.9973 1112.94669,2040.27013 1113.86953,2041.73392 C1114.79237,2043.19771 1115.61973,2044.84179 1116.35163,2046.66622 C1117.08354,2048.49064 1117.67223,2050.49006 1118.11774,2052.66452 C1118.56325,2054.83899 1118.786,2057.17783 1118.786,2059.68111 L1118.786,2067 L1111.97613,2067 L1111.97613,2059.77657 C1111.97613,2057.65515 1111.79051,2055.63982 1111.41925,2053.73053 C1111.048,2051.82125 1110.55476,2050.06049 1109.93954,2048.44821 C1109.32431,2046.83592 1108.61894,2045.37746 1107.82339,2044.07278 C1107.02784,2042.7681 1106.20048,2041.65968 1105.34129,2040.74746 C1104.4821,2039.83525 1103.62292,2039.13519 1102.76372,2038.64726 C1101.90453,2038.15933 1101.1143,2037.91537 1100.393,2037.91537 C1099.6717,2037.91537 1098.88147,2038.15933 1098.02228,2038.64726 C1097.16308,2039.13519 1096.3039,2039.83525 1095.44471,2040.74746 C1094.58552,2041.65968 1093.75816,2042.7681 1092.96261,2044.07278 C1092.16706,2045.37746 1091.46168,2046.83592 1090.84646,2048.44821 C1090.23124,2050.06049 1089.738,2051.82125 1089.36675,2053.73053 C1088.99549,2055.63982 1088.80986,2057.65515 1088.80986,2059.77657 L1088.80986,2067 L1082,2067 L1082,2059.68111 C1082,2057.17783 1082.22275,2054.83899 1082.66826,2052.66452 C1083.11377,2050.49006 1083.70246,2048.49064 1084.43437,2046.66622 C1085.16627,2044.84179 1085.99363,2043.19771 1086.91647,2041.73392 C1087.8393,2040.27013 1088.78865,2038.9973 1089.76452,2037.91537 L1082,2037.91537 L1082,2032.09208 L1110.67144,2032.09208 C1112.36861,2032.09208 1113.61495,2031.71553 1114.4105,2030.96242 C1115.20605,2030.20932 1115.60382,2029.25999 1115.60382,2028.11442 C1115.60382,2027.75378 1115.54018,2027.38784 1115.41289,2027.01659 C1115.2856,2026.64534 1115.12119,2026.29531 1114.91965,2025.96649 C1114.71811,2025.63766 1114.48475,2025.32476 1114.21957,2025.02776 C1113.95439,2024.73076 1113.6839,2024.47619 1113.40811,2024.26405 L1116.84487,2020 C1118.6269,2021.3365 1119.93158,2022.76844 1120.75895,2024.29587 C1121.58632,2025.8233 1122,2027.23403 1122,2028.5281 C1122,2029.7161 1121.78786,2030.87756 1121.36356,2032.01253 C1120.93927,2033.14749 1120.29754,2034.14985 1119.43835,2035.01963 C1118.57915,2035.88942 1117.49192,2036.58948 1116.17661,2037.11984 C1114.8613,2037.65019 1113.31266,2037.91537 1111.53063,2037.91537 L1111.02148,2037.91537 Z M1151.02574,2037.78293 L1151.02574,2032.00269 L1160.68911,2032.00269 C1162.40001,2032.00269 1163.6462,2031.62892 1164.42772,2030.88138 C1165.20924,2030.13384 1165.6,2029.19154 1165.6,2028.05444 C1165.6,2027.69646 1165.53663,2027.33322 1165.4099,2026.96472 C1165.28317,2026.59621 1165.11947,2026.24877 1164.91881,2025.92238 C1164.71815,2025.59599 1164.48581,2025.2854 1164.22178,2024.99059 C1163.95775,2024.69579 1163.68845,2024.4431 1163.41386,2024.23253 L1166.83564,2020 C1168.60991,2021.32662 1169.91419,2022.74798 1170.74851,2024.26411 C1171.58284,2025.78025 1172,2027.18055 1172,2028.46505 C1172,2029.41264 1171.86271,2030.33389 1171.58812,2031.22883 C1171.31353,2032.12377 1170.89109,2032.95553 1170.32079,2033.72413 C1169.75049,2034.49272 1169.03235,2035.17708 1168.16634,2035.77722 C1167.30033,2036.37736 1166.28647,2036.85641 1165.12475,2037.21438 C1165.80066,2038.18302 1166.31815,2039.17797 1166.67723,2040.19926 C1167.03631,2041.22055 1167.21584,2042.13127 1167.21584,2042.93145 C1167.21584,2044.27913 1166.99934,2045.47939 1166.56634,2046.53226 C1166.13333,2047.58513 1165.5472,2048.51691 1164.80792,2049.32762 C1164.06864,2050.13833 1163.19736,2050.85428 1162.19406,2051.47547 C1161.19075,2052.09667 1160.1241,2052.64415 1158.99406,2053.11794 C1157.86402,2053.59174 1156.69704,2054.00761 1155.49307,2054.36559 C1154.2891,2054.72357 1153.10628,2055.06048 1151.94455,2055.37634 C1152.45149,2055.98701 1152.85808,2056.66084 1153.16436,2057.39785 C1153.47063,2058.13486 1153.62376,2058.97715 1153.62376,2059.92473 C1153.62376,2060.89337 1153.41782,2061.8041 1153.00594,2062.65692 C1152.59406,2063.50975 1152.02377,2064.25728 1151.29505,2064.89953 C1150.56633,2065.54178 1149.69505,2066.05242 1148.68119,2066.43145 C1147.66732,2066.81049 1146.56898,2067 1145.38614,2067 C1144.24554,2067 1143.17888,2066.82628 1142.18614,2066.47883 C1141.19339,2066.13138 1140.3274,2065.64707 1139.58812,2065.02587 C1138.84884,2064.40468 1138.26799,2063.66241 1137.84554,2062.79906 C1137.4231,2061.9357 1137.21188,2060.9776 1137.21188,2059.92473 C1137.21188,2058.9982 1137.37558,2058.17171 1137.70297,2057.44523 C1138.03036,2056.71875 1138.48977,2056.05018 1139.08119,2055.43952 C1137.91947,2055.12365 1136.7472,2054.78674 1135.56436,2054.42876 C1134.38151,2054.07079 1133.23037,2053.64438 1132.11089,2053.14953 C1130.99141,2052.65468 1129.9406,2052.08614 1128.95842,2051.44388 C1127.97623,2050.80163 1127.11552,2050.04358 1126.37624,2049.16969 C1125.63696,2048.29581 1125.05611,2047.29033 1124.63366,2046.15323 C1124.21122,2045.01612 1124,2043.71058 1124,2042.23656 C1124,2040.72042 1124.27458,2039.31486 1124.82376,2038.01983 C1125.37294,2036.72479 1126.11749,2035.60876 1127.05743,2034.67171 C1127.99736,2033.73465 1129.09042,2032.99765 1130.33663,2032.46069 C1131.58284,2031.92372 1132.90296,2031.65524 1134.29703,2031.65524 C1135.83895,2031.65524 1137.16963,2031.8974 1138.28911,2032.38172 C1139.40859,2032.86604 1140.33795,2033.50302 1141.07723,2034.29267 C1141.81651,2035.08233 1142.36567,2035.96673 1142.72475,2036.9459 C1143.08383,2037.92507 1143.26337,2038.92002 1143.26337,2039.93078 C1143.26337,2041.23634 1143.04159,2042.37869 1142.59802,2043.35786 C1142.15445,2044.33703 1141.56832,2045.15826 1140.8396,2045.82157 C1140.11089,2046.48488 1139.27657,2046.98499 1138.33663,2047.32191 C1137.39669,2047.65883 1136.43037,2047.82728 1135.43762,2047.82728 C1134.88845,2047.82728 1134.34984,2047.78517 1133.82178,2047.70094 C1133.29373,2047.61671 1132.80792,2047.47984 1132.36436,2047.29032 C1132.95578,2047.7957 1133.61584,2048.23264 1134.34455,2048.60114 C1135.07327,2048.96965 1135.83894,2049.3013 1136.64158,2049.5961 C1137.44423,2049.89091 1138.27854,2050.14886 1139.14455,2050.36996 C1140.01057,2050.59106 1140.866,2050.8069 1141.71089,2051.01747 C1142.3868,2051.18593 1143.0099,2051.33333 1143.5802,2051.45968 C1144.1505,2051.58602 1144.76303,2051.74395 1145.41782,2051.93347 C1146.05149,2051.72289 1146.76435,2051.50706 1147.55644,2051.28595 C1148.34852,2051.06485 1149.0825,2050.84902 1149.75842,2050.63844 C1151.04687,2050.25941 1152.33003,2049.85932 1153.60792,2049.43817 C1154.88581,2049.01702 1156.0264,2048.51692 1157.0297,2047.93784 C1158.03301,2047.35876 1158.8462,2046.66387 1159.46931,2045.85316 C1160.09241,2045.04245 1160.40396,2044.06855 1160.40396,2042.93145 C1160.40396,2041.39426 1159.95512,2040.15189 1159.05743,2039.2043 C1158.15973,2038.25672 1156.85545,2037.78293 1155.14455,2037.78293 L1151.02574,2037.78293 Z M1133.76963,2037 C1133.49738,2037 1133.18848,2037.05068 1132.84293,2037.15203 C1132.49738,2037.25338 1132.1466,2037.43356 1131.79058,2037.69257 C1131.43455,2037.95158 1131.09948,2038.30067 1130.78534,2038.73986 C1130.4712,2039.17906 1130.20943,2039.72522 1130,2040.37838 C1130.27225,2040.71622 1130.57591,2040.99212 1130.91099,2041.20608 C1131.24607,2041.42005 1131.57591,2041.58333 1131.90052,2041.69595 C1132.22513,2041.80856 1132.52879,2041.88739 1132.81152,2041.93243 C1133.09424,2041.97748 1133.32984,2042 1133.51832,2042 C1133.91623,2042 1134.27225,2041.92117 1134.58639,2041.76351 C1134.90053,2041.60586 1135.1623,2041.40315 1135.37173,2041.15541 C1135.58115,2040.90766 1135.73822,2040.63176 1135.84293,2040.3277 C1135.94764,2040.02365 1136,2039.72523 1136,2039.43243 C1136,2038.66666 1135.79058,2038.06982 1135.37173,2037.64189 C1134.95288,2037.21396 1134.41885,2037 1133.76963,2037 Z M1143,2059.66892 C1143,2059.93919 1143.05012,2060.20946 1143.15038,2060.47973 C1143.25063,2060.75 1143.38596,2060.99775 1143.55639,2061.22297 C1143.72682,2061.4482 1143.93734,2061.63401 1144.18797,2061.78041 C1144.4386,2061.9268 1144.71428,2062 1145.01504,2062 C1145.59649,2062 1146.07268,2061.75789 1146.44361,2061.27365 C1146.81454,2060.78941 1147,2060.25451 1147,2059.66892 C1147,2059.08333 1146.80953,2058.54843 1146.42857,2058.06419 C1146.04762,2057.57995 1145.57644,2057.22523 1145.01504,2057 C1144.43358,2057.22523 1143.95238,2057.57995 1143.57143,2058.06419 C1143.19047,2058.54843 1143,2059.08333 1143,2059.66892 Z M1197.69519,2055 C1197.26738,2055 1196.8877,2055.089 1196.55615,2055.26702 C1196.2246,2055.44503 1195.94653,2055.67539 1195.72193,2055.95812 C1195.49733,2056.24084 1195.32086,2056.56021 1195.19251,2056.91623 C1195.06417,2057.27225 1195,2057.6178 1195,2057.95288 C1195,2058.35079 1195.05882,2058.73298 1195.17647,2059.09948 C1195.29412,2059.46597 1195.46524,2059.79057 1195.68984,2060.0733 C1195.91444,2060.35602 1196.18716,2060.58115 1196.50802,2060.74869 C1196.82888,2060.91623 1197.19251,2061 1197.59893,2061 C1198.39038,2061 1199.06417,2060.70157 1199.62032,2060.10471 C1200.17647,2059.50785 1200.63636,2058.72775 1201,2057.7644 C1200.80749,2057.17801 1200.57754,2056.70157 1200.31016,2056.33508 C1200.04278,2055.96858 1199.75936,2055.68586 1199.45989,2055.48691 C1199.16043,2055.28796 1198.86096,2055.15707 1198.5615,2055.09424 C1198.26203,2055.03141 1197.97326,2055 1197.69519,2055 Z M1163.12766,2046.82095 C1163.21277,2047.34318 1163.34574,2048.04297 1163.5266,2048.92032 C1163.70745,2049.79768 1163.95213,2050.75335 1164.26064,2051.78738 C1164.56915,2052.8214 1164.95744,2053.86586 1165.42553,2054.92077 C1165.89362,2055.97568 1166.44149,2056.93136 1167.06915,2057.78782 C1167.69681,2058.64429 1168.43085,2059.34407 1169.27128,2059.8872 C1170.11171,2060.43032 1171.05319,2060.70188 1172.09574,2060.70188 C1173.26596,2060.70188 1174.31383,2060.52432 1175.23936,2060.1692 C1176.1649,2059.81408 1176.94681,2059.21874 1177.58511,2058.38317 C1178.22341,2057.54759 1178.70745,2056.43525 1179.03723,2055.04611 C1179.36702,2053.65696 1179.53191,2051.91795 1179.53191,2049.82901 C1179.53191,2047.07161 1179.76064,2044.59625 1180.21809,2042.40286 C1180.67553,2040.20948 1181.42021,2038.33991 1182.45213,2036.79409 C1183.48405,2035.24828 1184.82446,2034.06282 1186.4734,2033.23769 C1188.12235,2032.41256 1190.12765,2032 1192.48936,2032 C1194.5532,2032 1196.52127,2032.44912 1198.39362,2033.34736 C1200.26597,2034.2456 1201.91489,2035.54595 1203.34043,2037.24843 C1204.76596,2038.95092 1205.89893,2041.03983 1206.73936,2043.51522 C1207.57979,2045.99061 1208,2048.80542 1208,2051.95971 C1208,2054.02776 1207.75,2055.97045 1207.25,2057.78782 C1206.75,2059.6052 1206.0266,2061.19799 1205.07979,2062.56625 C1204.13297,2063.9345 1202.97341,2065.01551 1201.60106,2065.80931 C1200.22872,2066.60311 1198.65958,2067 1196.89362,2067 C1195.46808,2067 1194.24469,2066.718 1193.2234,2066.15398 C1192.20212,2065.58997 1191.36171,2064.86407 1190.70213,2063.97628 C1190.04255,2063.08848 1189.55851,2062.09102 1189.25,2060.98389 C1188.94149,2059.87675 1188.78723,2058.78007 1188.78723,2057.69382 C1188.78723,2056.46135 1189.00532,2055.29156 1189.44149,2054.18442 C1189.87766,2053.07728 1190.48936,2052.10072 1191.2766,2051.2547 C1192.06383,2050.40868 1193.00531,2049.73501 1194.10106,2049.23366 C1195.19681,2048.73232 1196.40425,2048.48165 1197.7234,2048.48165 C1198.42554,2048.48165 1199.09042,2048.54954 1199.71809,2048.68532 C1200.34575,2048.8211 1200.96808,2049.04566 1201.58511,2049.359 C1201.41489,2048.02208 1201.10639,2046.6904 1200.65957,2045.36392 C1200.21276,2044.03744 1199.61702,2042.85199 1198.87234,2041.80752 C1198.12766,2040.76305 1197.21277,2039.91182 1196.12766,2039.2538 C1195.04255,2038.59579 1193.78724,2038.26679 1192.3617,2038.26679 C1191.27659,2038.26679 1190.32979,2038.55923 1189.52128,2039.14414 C1188.71276,2039.72904 1188.04256,2040.53849 1187.51064,2041.57252 C1186.97872,2042.60654 1186.57979,2043.83377 1186.31383,2045.25425 C1186.04787,2046.67473 1185.91489,2048.22052 1185.91489,2049.89167 C1185.91489,2052.31484 1185.6383,2054.56564 1185.08511,2056.64414 C1184.53191,2058.72263 1183.6915,2060.52954 1182.56383,2062.06491 C1181.43616,2063.60028 1180.01597,2064.80662 1178.30319,2065.68397 C1176.59042,2066.56133 1174.57448,2067 1172.25532,2067 C1170.55318,2067 1169.01065,2066.66577 1167.62766,2065.99731 C1166.24467,2065.32885 1165.01064,2064.46196 1163.92553,2063.3966 C1162.84042,2062.33124 1161.89362,2061.13534 1161.08511,2059.80886 C1160.27659,2058.48239 1159.59043,2057.16115 1159.0266,2055.84512 C1158.46276,2054.52909 1158.01596,2053.27574 1157.68617,2052.08505 C1157.35638,2050.89435 1157.12766,2049.91257 1157,2049.13966 L1163.12766,2046.82095 Z M1218,2037.78293 L1218,2032.00269 L1246.75591,2032.00269 C1248.4567,2032.00269 1249.69553,2031.62892 1250.47244,2030.88138 C1251.24935,2030.13384 1251.6378,2029.19154 1251.6378,2028.05444 C1251.6378,2027.31742 1251.41733,2026.60148 1250.97638,2025.90659 C1250.53543,2025.21169 1250.0315,2024.65368 1249.46457,2024.23253 L1252.86614,2020 C1254.62993,2021.32662 1255.92651,2022.74798 1256.75591,2024.26411 C1257.58531,2025.78025 1258,2027.18055 1258,2028.46505 C1258,2029.51793 1257.83727,2030.53393 1257.51181,2031.5131 C1257.18635,2032.49228 1256.68767,2033.3872 1256.01575,2034.19792 C1255.34383,2035.00863 1254.48819,2035.70351 1253.44882,2036.28259 C1252.40944,2036.86167 1251.16536,2037.27755 1249.71654,2037.53024 C1250.49344,2038.28831 1251.22834,2039.12007 1251.92126,2040.02554 C1252.61418,2040.93101 1253.21785,2041.89437 1253.73228,2042.91566 C1254.24672,2043.93695 1254.65092,2045.00559 1254.94488,2046.12164 C1255.23885,2047.23768 1255.38583,2048.3853 1255.38583,2049.56452 C1255.38583,2052.17564 1254.88189,2054.5551 1253.87402,2056.70296 C1252.86614,2058.85082 1251.50657,2060.68805 1249.79528,2062.21472 C1248.08398,2063.74138 1246.0945,2064.92058 1243.82677,2065.75235 C1241.55904,2066.58412 1239.17587,2067 1236.67717,2067 C1234.19946,2067 1231.83203,2066.58412 1229.5748,2065.75235 C1227.31757,2064.92058 1225.33334,2063.74138 1223.62205,2062.21472 C1221.91075,2060.68805 1220.54594,2058.85082 1219.52756,2056.70296 C1218.50918,2054.5551 1218,2052.17564 1218,2049.56452 C1218,2048.34318 1218.13648,2047.17978 1218.40945,2046.07426 C1218.68242,2044.96874 1219.05512,2043.92642 1219.52756,2042.94724 C1220,2041.96807 1220.56693,2041.04682 1221.22835,2040.18347 C1221.88977,2039.32011 1222.60892,2038.51994 1223.38583,2037.78293 L1218,2037.78293 Z M1225,2049.54656 C1225,2051.34684 1225.34482,2052.95568 1226.03448,2054.37314 C1226.72414,2055.79061 1227.63129,2056.99077 1228.75597,2057.97368 C1229.88064,2058.9566 1231.15914,2059.7067 1232.59151,2060.22402 C1234.02388,2060.74134 1235.49336,2061 1237,2061 C1238.4642,2061 1239.91246,2060.72582 1241.34483,2060.17746 C1242.7772,2059.6291 1244.061,2058.85313 1245.19629,2057.84953 C1246.33157,2056.84592 1247.24933,2055.64058 1247.9496,2054.23347 C1248.64987,2052.82635 1249,2051.26407 1249,2049.54656 C1249,2048.42914 1248.84085,2047.36865 1248.52255,2046.36505 C1248.20424,2045.36144 1247.75862,2044.43028 1247.18568,2043.57152 C1246.61273,2042.71277 1245.9443,2041.94197 1245.18037,2041.25911 C1244.41644,2040.57624 1243.58886,2039.99168 1242.69761,2039.5054 C1241.80636,2039.01912 1240.87799,2038.64665 1239.91247,2038.38799 C1238.94694,2038.12933 1237.97613,2038 1237,2038 C1236.02387,2038 1235.05306,2038.12933 1234.08753,2038.38799 C1233.12201,2038.64665 1232.19364,2039.01912 1231.30239,2039.5054 C1230.41114,2039.99168 1229.58356,2040.57624 1228.81963,2041.25911 C1228.0557,2041.94197 1227.38727,2042.71277 1226.81432,2043.57152 C1226.24138,2044.43028 1225.79576,2045.36144 1225.47745,2046.36505 C1225.15915,2047.36865 1225,2048.42914 1225,2049.54656 Z M1253.85809,2054.98701 C1255.14413,2056.31112 1256.29619,2057.36291 1257.3143,2058.14242 C1258.33241,2058.92194 1259.2487,2059.50923 1260.06319,2059.90433 C1260.87768,2060.29942 1261.60107,2060.5557 1262.23337,2060.67316 C1262.86567,2060.79062 1263.4283,2060.84935 1263.92129,2060.84935 C1265.20732,2060.84935 1266.36474,2060.60375 1267.39357,2060.11255 C1268.4224,2059.62135 1269.29046,2058.93796 1269.99778,2058.06234 C1270.7051,2057.18672 1271.25166,2056.15094 1271.63747,2054.95498 C1272.02328,2053.75901 1272.21619,2052.46696 1272.21619,2051.07879 C1272.21619,2049.96825 1272.05543,2048.75094 1271.73392,2047.42684 C1271.41242,2046.10274 1270.82299,2044.74128 1269.96563,2043.34242 C1269.10827,2041.94357 1267.9455,2040.52872 1266.47727,2039.09784 C1265.00905,2037.66695 1263.12825,2036.27879 1260.83481,2034.93333 L1263.88914,2030 C1266.91132,2031.58038 1269.39763,2033.29956 1271.34812,2035.15758 C1273.29861,2037.01559 1274.84183,2038.88426 1275.97783,2040.76364 C1277.11383,2042.64301 1277.90151,2044.47431 1278.34091,2046.25758 C1278.78031,2048.04085 1279,2049.6479 1279,2051.07879 C1279,2053.66293 1278.64635,2055.9427 1277.93902,2057.91818 C1277.2317,2059.89366 1276.22432,2061.55411 1274.91685,2062.89957 C1273.60938,2064.24503 1272.02865,2065.26479 1270.17461,2065.95887 C1268.32057,2066.65296 1266.24687,2067 1263.95344,2067 C1261.87434,2067 1259.67204,2066.44474 1257.34645,2065.3342 C1255.02087,2064.22366 1252.57207,2062.3977 1250,2059.85628 L1253.85809,2054.98701 Z" id="ಬಂಗಳೂರು"></path>
        </g>
    </g>
</svg>