<?xml version="1.0" encoding="UTF-8" standalone="no"?>
<svg width="20px" height="20px" viewBox="0 0 20 20" version="1.1" xmlns="http://www.w3.org/2000/svg" xmlns:xlink="http://www.w3.org/1999/xlink">
    <!-- Generator: Sketch 3.7.2 (28276) - http://www.bohemiancoding.com/sketch -->
    <title>tools</title>
    <desc>Created with Sketch.</desc>
    <defs></defs>
    <g id="Design" stroke="none" stroke-width="1" fill="none" fill-rule="evenodd">
        <g id="Resources" transform="translate(-1130.000000, -440.000000)" fill="#222222">
            <g id="tools" transform="translate(1130.000000, 440.000000)">
                <path d="M3.14949153,20 C2.56542373,20 1.96847458,19.6989831 1.37457627,19.1050847 L0.895254237,18.6254237 C0.253220339,17.9833898 -0.0461016949,17.340339 0.00576271186,16.7138983 C0.0633898305,16.0145763 0.548813559,15.5905085 0.671186441,15.4938983 L2.53186441,13.6328814 C2.58983051,13.5749153 2.69152542,13.5054237 2.84508475,13.5054237 C2.92711864,13.5054237 2.99728814,13.5250847 3.06542373,13.5440678 C3.12915254,13.5616949 3.18915254,13.5783051 3.2579661,13.5783051 C3.44847458,13.5783051 3.68237288,13.4410169 3.95288136,13.1708475 L5.5220339,11.6016949 C5.46644068,11.3071186 5.42033898,10.6908475 5.61389831,10.2128814 C5.7020339,9.99559322 5.91186441,9.85525424 6.14881356,9.85525424 C6.30440678,9.85525424 6.45050847,9.9159322 6.56067797,10.0257627 L9.97423729,13.439322 C10.1128814,13.5779661 10.1722034,13.7752542 10.1332203,13.9677966 C10.0945763,14.1576271 9.96508475,14.3138983 9.78711864,14.3861017 C9.55423729,14.480678 9.26474576,14.5284746 8.92644068,14.5284746 C8.70135593,14.5284746 8.49864407,14.5067797 8.36779661,14.4888136 L6.82949153,16.0471186 C6.34440678,16.5322034 6.40881356,16.7647458 6.4559322,16.9345763 C6.48745763,17.0474576 6.55254237,17.2823729 6.36711864,17.4681356 L4.50644068,19.3288136 C4.40372881,19.4589831 3.93016949,20 3.14949153,20 L3.14949153,20 L3.14949153,20 Z M2.91728814,14.2064407 L1.09220339,16.0250847 C1.09050847,16.0264407 0.71559322,16.3084746 0.680677966,16.7776271 C0.649830508,17.1942373 0.883050847,17.6545763 1.37457627,18.1461017 L1.85389831,18.6254237 C2.3159322,19.0877966 2.75186441,19.3220339 3.14949153,19.3220339 C3.66508475,19.3220339 3.97186441,18.9122034 3.97491525,18.9077966 L4.01118644,18.8654237 L5.79355932,17.0827119 C5.72135593,16.8169492 5.61728814,16.300339 6.34983051,15.5677966 L7.91864407,13.9986441 C8.06067797,13.8569492 8.25762712,13.7891525 8.46067797,13.8172881 C8.67118644,13.8464407 9.11423729,13.8674576 9.38101695,13.8047458 L6.19491525,10.6186441 C6.11661017,10.9491525 6.1579661,11.360678 6.18271186,11.539661 C6.21050847,11.740339 6.14440678,11.9379661 6.00135593,12.0810169 L4.43220339,13.6501695 C4.02440678,14.0579661 3.64033898,14.2562712 3.2579661,14.2562712 C3.11661017,14.2562712 3.00101695,14.2288136 2.91728814,14.2064407 L2.91728814,14.2064407 L2.91728814,14.2064407 Z" id="Shape"></path>
                <path d="M8.71525424,12.7810169 L8.23389831,12.3037288 L15.360678,5.11830508 L18.2023729,3.67932203 L19.2125424,1.86779661 L18.1474576,0.789491525 L16.3267797,1.79050847 L16.3013559,1.8440678 L14.8816949,4.63932203 L14.8430508,4.67762712 L7.69627119,11.7661017 L7.21898305,11.2847458 L14.3267797,4.23491525 L15.6871186,1.55559322 C15.7450847,1.40372881 15.8545763,1.27728814 15.9972881,1.1979661 L17.8030508,0.194915254 C18.0711864,0.0457627119 18.4098305,0.093220339 18.6267797,0.310169492 L19.6898305,1.37322034 C19.9067797,1.59016949 19.9542373,1.92881356 19.8050847,2.19694915 L18.8020339,4.00271186 C18.7227119,4.14542373 18.5962712,4.25457627 18.4444068,4.31254237 L15.7650847,5.67322034 L8.71525424,12.7810169" id="Shape"></path>
                <path d="M7.45762712,9.50067797 C7.37084746,9.50067797 7.2840678,9.46745763 7.21830508,9.40135593 L5.32644068,7.50983051 C4.92237288,7.65288136 4.49932203,7.72508475 4.06610169,7.72508475 C3.05830508,7.72508475 2.11084746,7.33288136 1.39830508,6.62033898 C0.357627119,5.57966102 0.103050847,4.0779661 0.717288136,2.60372881 C0.760677966,2.49932203 0.853559322,2.42338983 0.96440678,2.40169492 C1.07559322,2.37932203 1.18983051,2.41457627 1.26983051,2.49423729 L3.15762712,4.3820339 L4.50135593,3.0379661 L2.58372881,1.12033898 C2.50372881,1.04033898 2.46881356,0.925762712 2.49084746,0.814915254 C2.51254237,0.703728814 2.58847458,0.611186441 2.69288136,0.56779661 C3.20677966,0.353559322 3.73186441,0.244745763 4.25322034,0.244745763 C5.20338983,0.244745763 6.06338983,0.602372881 6.73966102,1.27898305 C7.77762712,2.31694915 8.11525424,3.83661017 7.62915254,5.20745763 L9.63864407,7.21661017 C9.70474576,7.28271186 9.74067797,7.37355932 9.73762712,7.46711864 C9.73457627,7.56101695 9.69288136,7.64915254 9.62271186,7.71084746 L7.68169492,9.41627119 C7.61728814,9.47288136 7.53762712,9.50067797 7.45762712,9.50067797 L7.45762712,9.50067797 L7.45762712,9.50067797 Z M5.40983051,6.77525424 C5.4979661,6.77525424 5.58474576,6.80949153 5.64983051,6.87423729 L7.47288136,8.69728814 L8.90338983,7.44033898 L6.99355932,5.53050847 C6.8959322,5.43288136 6.86745763,5.28576271 6.92135593,5.15864407 C7.4159322,3.98949153 7.15661017,2.65491525 6.26033898,1.75830508 C5.71389831,1.21186441 5.01966102,0.922711864 4.25322034,0.922711864 C3.98610169,0.922711864 3.71728814,0.957627119 3.44881356,1.02677966 L5.22033898,2.79830508 C5.35288136,2.93084746 5.35288136,3.14542373 5.22033898,3.2779661 L3.39728814,5.10101695 C3.27016949,5.22813559 3.04474576,5.22813559 2.91762712,5.10101695 L1.17457627,3.3579661 C0.894915254,4.40949153 1.14,5.40338983 1.87762712,6.14101695 C2.4620339,6.72542373 3.23932203,7.04711864 4.06610169,7.04711864 C4.48542373,7.04711864 4.89322034,6.96474576 5.2779661,6.8020339 C5.32033898,6.78372881 5.36542373,6.77525424 5.40983051,6.77525424 L5.40983051,6.77525424 L5.40983051,6.77525424 Z" id="Shape"></path>
                <path d="M15.6444068,19.4508475 C14.7183051,19.4508475 13.8783051,19.100339 13.2155932,18.4376271 C12.1840678,17.4061017 11.8562712,15.8962712 12.3505085,14.5338983 L10.3610169,12.5444068 C10.2284746,12.4118644 10.2284746,12.1972881 10.3610169,12.0650847 L12.1840678,10.2416949 C12.3111864,10.1142373 12.5362712,10.1142373 12.6633898,10.2413559 L14.6532203,12.2311864 C15.0647458,12.0820339 15.4949153,12.0064407 15.9338983,12.0064407 C16.9227119,12.0064407 17.8542373,12.3932203 18.5569492,13.0959322 C19.6169492,14.1559322 19.8827119,15.6688136 19.2681356,17.1430508 C19.2247458,17.2474576 19.1322034,17.3233898 19.0210169,17.3454237 C18.9101695,17.3671186 18.7959322,17.3325424 18.7155932,17.2522034 L16.8284746,15.3647458 L15.4844068,16.7088136 L17.3413559,18.5657627 C17.4213559,18.6457627 17.4562712,18.760339 17.4342373,18.8715254 C17.4125424,18.9823729 17.3366102,19.0749153 17.2322034,19.1186441 C16.7030508,19.3389831 16.1688136,19.4508475 15.6444068,19.4508475 L15.6444068,19.4508475 L15.6444068,19.4508475 Z M11.08,12.3047458 L12.9874576,14.2118644 C13.0857627,14.3105085 13.1142373,14.4586441 13.0586441,14.5864407 C12.5569492,15.7461017 12.8064407,17.0694915 13.6949153,17.9583051 C14.4244068,18.6877966 15.4372881,18.9366102 16.4776271,18.6610169 L14.7654237,16.9484746 C14.7016949,16.8850847 14.6661017,16.7989831 14.6661017,16.7088136 C14.6661017,16.6189831 14.7016949,16.5328814 14.7654237,16.4691525 L16.5888136,14.6457627 C16.7159322,14.5186441 16.9410169,14.5186441 17.0681356,14.6457627 L18.8091525,16.3871186 C19.0779661,15.3410169 18.819322,14.3172881 18.0776271,13.5755932 C17.5030508,13.000678 16.7416949,12.6844068 15.9338983,12.6844068 C15.5101695,12.6844068 15.0969492,12.7701695 14.7057627,12.939661 C14.5783051,12.9949153 14.4298305,12.9667797 14.3315254,12.8681356 L12.4237288,10.960678 L11.08,12.3047458 L11.08,12.3047458 L11.08,12.3047458 Z" id="Shape"></path>
            </g>
        </g>
    </g>
</svg>